custom-analysis
version=1
nRows=4
nColumns=98
inDegrees=no

This file contains tibia displacement and acting force.

Units are S.I. units (seconds, meters, Newtons, ...)
Angles are in degrees.

endheader
time	APT	SIT	knee_angle	aACL_R_force	pACL_R_force	aPCL_R_force	pPCL_R_force	aMCL_R_force	mMCL_R_force	pMCL_R_force	aLCL_R_force	mLCL_R_force	pLCL_R_force	aPCL_L_force	pPCL_L_force	aMCL_L_force	aLCL_L_force	aACL_R_length	pACL_R_length	aPCL_R_length	pPCL_R_length	aMCL_R_length	mMCL_R_length	pMCL_R_length	aLCL_R_length	mLCL_R_length	pLCL_R_length	aPCL_L_length	pPCL_L_length	aMCL_L_length	aLCL_L_length	aACL_R_strain	pACL_R_strain	aPCL_R_strain	pPCL_R_strain	aMCL_R_strain	mMCL_R_strain	pMCL_R_strain	aLCL_R_strain	mLCL_R_strain	pLCL_R_strain	aPCL_L_strain	pPCL_L_strain	aMCL_L_strain	aLCL_L_strain	femur_lat_meniscii_r.femur_lat_r.force.X	femur_lat_meniscii_r.femur_lat_r.force.Y	femur_lat_meniscii_r.femur_lat_r.force.Z	femur_lat_meniscii_r.femur_lat_r.torque.X	femur_lat_meniscii_r.femur_lat_r.torque.Y	femur_lat_meniscii_r.femur_lat_r.torque.Z	femur_lat_meniscii_r.meniscus_lat_r.force.X	femur_lat_meniscii_r.meniscus_lat_r.force.Y	femur_lat_meniscii_r.meniscus_lat_r.force.Z	femur_lat_meniscii_r.meniscus_lat_r.torque.X	femur_lat_meniscii_r.meniscus_lat_r.torque.Y	femur_lat_meniscii_r.meniscus_lat_r.torque.Z	femur_med_meniscii_r.femur_med_r.force.X	femur_med_meniscii_r.femur_med_r.force.Y	femur_med_meniscii_r.femur_med_r.force.Z	femur_med_meniscii_r.femur_med_r.torque.X	femur_med_meniscii_r.femur_med_r.torque.Y	femur_med_meniscii_r.femur_med_r.torque.Z	femur_med_meniscii_r.meniscus_med_r.force.X	femur_med_meniscii_r.meniscus_med_r.force.Y	femur_med_meniscii_r.meniscus_med_r.force.Z	femur_med_meniscii_r.meniscus_med_r.torque.X	femur_med_meniscii_r.meniscus_med_r.torque.Y	femur_med_meniscii_r.meniscus_med_r.torque.Z	femur_med_tibia_r.tibia_upper_r.force.X	femur_med_tibia_r.tibia_upper_r.force.Y	femur_med_tibia_r.tibia_upper_r.force.Z	femur_med_tibia_r.tibia_upper_r.torque.X	femur_med_tibia_r.tibia_upper_r.torque.Y	femur_med_tibia_r.tibia_upper_r.torque.Z	femur_med_tibia_r.femur_med_r.force.X	femur_med_tibia_r.femur_med_r.force.Y	femur_med_tibia_r.femur_med_r.force.Z	femur_med_tibia_r.femur_med_r.torque.X	femur_med_tibia_r.femur_med_r.torque.Y	femur_med_tibia_r.femur_med_r.torque.Z	femur_lat_tibia_r.tibia_upper_r.force.X	femur_lat_tibia_r.tibia_upper_r.force.Y	femur_lat_tibia_r.tibia_upper_r.force.Z	femur_lat_tibia_r.tibia_upper_r.torque.X	femur_lat_tibia_r.tibia_upper_r.torque.Y	femur_lat_tibia_r.tibia_upper_r.torque.Z	femur_lat_tibia_r.femur_lat_r.force.X	femur_lat_tibia_r.femur_lat_r.force.Y	femur_lat_tibia_r.femur_lat_r.force.Z	femur_lat_tibia_r.femur_lat_r.torque.X	femur_lat_tibia_r.femur_lat_r.torque.Y	femur_lat_tibia_r.femur_lat_r.torque.Z	femur_lat_meniscii_force_r	femur_med_meniscii_force_r	femur_lat_tibia_force_r	femur_med_tibia_force_r
      0.14110074	      0.01469983	      0.01292188	     43.02472602	     51.93441655	     -5.63098551	      0.00000000	      0.00000000	      0.00000000	      0.00000000	      0.00000000	      0.00000000	      0.00000000	      0.00000000	      0.00000000	      0.00000000	      0.00000001	      0.00000000	      0.03408977	      0.02629007	      0.03044002	      0.02902729	      0.05841198	      0.05931388	      0.05741752	      0.05142385	      0.04764162	      0.04320123	      0.01525851	      0.01651186	      0.06550154	      0.04489616	      0.09947477	      0.04913926	     -0.02107328	     -0.02879144	     -0.02690497	     -0.00802126	     -0.02231445	     -0.08134288	     -0.15406957	     -0.17464659	      0.00000079	     -0.32847694	      0.00000060	     -0.00000086	    -18.21526447	    176.99952802	     23.36768872	    -13.71112256	     -0.34144006	     -8.42859484	     18.21526447	   -176.99952802	    -23.36768872	      5.11433253	     -0.05850646	      4.75675293	     19.64085792	     39.27098148	      0.93329161	      0.40664861	     -0.36752919	      7.64909590	    -19.64085792	    -39.27098148	     -0.93329161	     -0.67420742	      0.30361538	      0.67096461	    -19.14910440	   -475.74199790	     94.49937047	     -9.29504097	      2.51325185	     10.97639544	     19.14910440	    475.74199790	    -94.49937047	     46.86507957	     -0.76755382	      5.42513669	     24.60876495	   -369.23463848	    -73.21279906	     11.25012747	     -1.12203198	      9.46100983	    -24.60876495	    369.23463848	     73.21279906	    -38.62072116	     -0.20743413	    -11.95608683	    179.46219004	     43.91861017	    377.22662089	    485.41453190
      0.14154815	      0.01468475	      0.01299088	     43.23180870	     50.49952223	     -6.43749213	      0.00000000	      0.00000000	      0.00000000	      0.00000000	      0.00000000	      0.00000000	      0.00000000	      0.00000000	      0.00000000	      0.00000000	      0.00000001	      0.00000000	      0.03406416	      0.02626375	      0.03048762	      0.02906461	      0.05842683	      0.05931322	      0.05740050	      0.05142219	      0.04762648	      0.04317457	      0.01525851	      0.01651186	      0.06550154	      0.04489616	      0.09864904	      0.04808901	     -0.01954238	     -0.02754268	     -0.02665749	     -0.00803229	     -0.02260421	     -0.08137251	     -0.15433841	     -0.17515581	      0.00000079	     -0.32847694	      0.00000060	     -0.00000086	    -18.15214722	    176.87717879	     23.61925416	    -13.81269985	     -0.34133473	     -8.41644423	     18.15214722	   -176.87717879	    -23.61925416	      5.11620361	     -0.06459035	      4.77275601	     19.21519495	     37.74147068	      0.81055466	      0.42587251	     -0.35920164	      7.48727719	    -19.21519495	    -37.74147068	     -0.81055466	     -0.65014035	      0.29881046	      0.64123384	    -19.57123225	   -474.08446077	     95.05793036	     -9.27536442	      2.53725722	     10.95107641	     19.57123225	    474.08446077	    -95.05793036	     47.05271445	     -0.77831434	      5.59921847	     24.23207244	   -366.23487237	    -72.81816641	     11.15623582	     -1.12766377	      9.41199213	    -24.23207244	    366.23487237	     72.81816641	    -38.38693478	     -0.19811722	    -11.80574967	    179.36807406	     42.35917049	    374.18933768	    483.91643824
      0.14190612	      0.01467196	      0.01304599	     43.39747507	     49.31279079	     -7.10348953	      0.00000000	      0.00000000	      0.00000000	      0.00000000	      0.00000000	      0.00000000	      0.00000000	      0.00000000	      0.00000000	      0.00000000	      0.00000001	      0.00000000	      0.03404349	      0.02624264	      0.03052612	      0.02909491	      0.05843884	      0.05931290	      0.05738717	      0.05142102	      0.04761451	      0.04315343	      0.01525851	      0.01651186	      0.06550154	      0.04489616	      0.09798218	      0.04724672	     -0.01830436	     -0.02652879	     -0.02645739	     -0.00803774	     -0.02283124	     -0.08139350	     -0.15455090	     -0.17555968	      0.00000079	     -0.32847694	      0.00000060	     -0.00000086	    -18.00366820	    177.18661595	     23.78593343	    -13.88953209	     -0.33543421	     -8.36345779	     18.00366820	   -177.18661595	    -23.78593343	      5.12755232	     -0.07484595	      4.78774681	     18.75026584	     36.70510626	      0.70373036	      0.44980925	     -0.35003680	      7.30557513	    -18.75026584	    -36.70510626	     -0.70373036	     -0.63565002	      0.29291844	      0.62516080	    -19.13043171	   -472.83145666	     95.37528933	     -9.25669920	      2.54388455	     10.95939136	     19.13043171	    472.83145666	    -95.37528933	     47.15011734	     -0.77500193	      5.41068529	     23.27588341	   -363.48573876	    -72.22355631	     11.06260723	     -1.14339638	      9.34140179	    -23.27588341	    363.48573876	     72.22355631	    -38.07456085	     -0.17559946	    -11.40846845	    179.68027040	     41.22296121	    371.32181610	    482.73388698
      0.14236508	      0.01465451	      0.01311650	     43.60983860	     47.71389381	     -8.01032530	      0.00000000	      0.00000000	      0.00000000	      0.00000000	      0.00000000	      0.00000000	      0.00000000	      0.00000000	      0.00000000	      0.00000000	      0.00000001	      0.00000000	      0.03401667	      0.02621547	      0.03057604	      0.02913437	      0.05845440	      0.05931274	      0.05737044	      0.05141970	      0.04759935	      0.04312656	      0.01525851	      0.01651186	      0.06550154	      0.04489616	      0.09711721	      0.04616224	     -0.01669892	     -0.02520853	     -0.02619824	     -0.00804037	     -0.02311607	     -0.08141706	     -0.15482014	     -0.17607302	      0.00000079	     -0.32847694	      0.00000060	     -0.00000086	    -17.59742827	    177.37946386	     23.94695042	    -13.96045157	     -0.32372608	     -8.20624259	     17.59742827	   -177.37946386	    -23.94695042	      5.13434888	     -0.09162908	      4.79698871	     18.11631008	     35.24311199	      0.60500247	      0.46043748	     -0.33796262	      7.05825048	    -18.11631008	    -35.24311199	     -0.60500247	     -0.61203851	      0.28439753	      0.60163874	    -18.94637482	   -471.00010125	     95.83063926	     -9.23128633	      2.55830663	     10.95024502	     18.94637482	    471.00010125	    -95.83063926	     47.29167005	     -0.77669323	      5.33104457	     23.31591092	   -360.03879889	    -71.26567103	     10.93798661	     -1.12875791	      9.29668613	    -23.31591092	    360.03879889	     71.26567103	    -37.59377977	     -0.17475167	    -11.43221747	    179.85160582	     39.63134696	    367.76400623	    481.02346296
